<svg xmlns="http://www.w3.org/2000/svg" xmlns:xlink="http://www.w3.org/1999/xlink" width="700pt" height="700pt" version="1.1" viewBox="0 0 700 700">
 <defs>
  <symbol id="t" overflow="visible">
   <path d="m0.75-0.046875c-0.042969 0.023438-0.085938 0.039062-0.125 0.046875-0.042969 0.0078125-0.085938 0.015625-0.125 0.015625-0.13672 0-0.24609-0.035156-0.32812-0.10938-0.074219-0.070312-0.10938-0.17578-0.10938-0.3125 0-0.125 0.035156-0.22266 0.10938-0.29688 0.082031-0.082031 0.19141-0.125 0.32812-0.125 0.039062 0 0.082031 0.007813 0.125 0.015625 0.039062 0.011719 0.082031 0.027344 0.125 0.046875v0.17188c-0.042969-0.03125-0.085938-0.050781-0.125-0.0625-0.03125-0.007812-0.070312-0.015625-0.10938-0.015625-0.074219 0-0.13672 0.027344-0.1875 0.078125-0.042969 0.042969-0.0625 0.10547-0.0625 0.1875 0 0.085938 0.019531 0.15234 0.0625 0.20312 0.050781 0.042969 0.11328 0.0625 0.1875 0.0625 0.039063 0 0.078125-0.003906 0.10938-0.015625 0.039062-0.007812 0.082031-0.03125 0.125-0.0625z"/>
  </symbol>
  <symbol id="c" overflow="visible">
   <path d="m0.54688-0.4375c-0.023437-0.007812-0.042969-0.015625-0.0625-0.015625-0.011719-0.007813-0.027344-0.015625-0.046875-0.015625-0.042969 0-0.078125 0.015625-0.10938 0.046875s-0.046875 0.078125-0.046875 0.14062v0.28125h-0.1875v-0.60938h0.1875v0.10938c0.03125-0.039062 0.0625-0.070312 0.09375-0.09375 0.03125-0.019531 0.066406-0.03125 0.10938-0.03125h0.015625c0.007812 0 0.023438 0.007812 0.046875 0.015625z"/>
  </symbol>
  <symbol id="a" overflow="visible">
   <path d="m0.70312-0.3125v0.0625h-0.45312c0 0.042969 0.015625 0.078125 0.046875 0.10938 0.03125 0.023437 0.066406 0.03125 0.10938 0.03125 0.039062 0 0.082031-0.003906 0.125-0.015625 0.050781-0.019531 0.097656-0.039062 0.14062-0.0625v0.15625c-0.054687 0.011719-0.10156 0.023438-0.14062 0.03125-0.042969 0.0078125-0.089844 0.015625-0.14062 0.015625-0.10547 0-0.1875-0.023438-0.25-0.078125-0.0625-0.0625-0.09375-0.14062-0.09375-0.23438 0-0.10156 0.03125-0.17969 0.09375-0.23438 0.0625-0.0625 0.14453-0.09375 0.25-0.09375 0.09375 0 0.16406 0.03125 0.21875 0.09375 0.0625 0.054688 0.09375 0.125 0.09375 0.21875zm-0.20312-0.0625c0-0.03125-0.011719-0.054688-0.03125-0.078125-0.023438-0.03125-0.046875-0.046875-0.078125-0.046875-0.042969 0-0.078125 0.015625-0.10938 0.046875-0.023438 0.023437-0.03125 0.046875-0.03125 0.078125z"/>
  </symbol>
  <symbol id="e" overflow="visible">
   <path d="m0.35938-0.26562c-0.042969 0-0.074219 0.007813-0.09375 0.015625-0.011719 0.011719-0.015625 0.03125-0.015625 0.0625 0 0.023438 0.003906 0.042969 0.015625 0.0625 0.019531 0.011719 0.046875 0.015625 0.078125 0.015625s0.054688-0.007813 0.078125-0.03125c0.03125-0.03125 0.046875-0.066406 0.046875-0.10938v-0.015625zm0.29688-0.078125v0.34375h-0.1875v-0.09375c-0.03125 0.042969-0.0625 0.074219-0.09375 0.09375-0.03125 0.0078125-0.070312 0.015625-0.10938 0.015625-0.0625 0-0.11719-0.015625-0.15625-0.046875-0.042969-0.039062-0.0625-0.09375-0.0625-0.15625s0.019531-0.10938 0.0625-0.14062c0.050781-0.039063 0.12891-0.0625 0.23438-0.0625h0.125v-0.015625c0-0.03125-0.015625-0.050781-0.046875-0.0625-0.023437-0.019531-0.058594-0.03125-0.10938-0.03125-0.042969 0-0.085938 0.007812-0.125 0.015625-0.03125 0.011719-0.0625 0.027344-0.09375 0.046875v-0.15625c0.039062-0.007812 0.082031-0.015625 0.125-0.015625 0.039062-0.007813 0.082031-0.015625 0.125-0.015625 0.11328 0 0.19141 0.027344 0.23438 0.078125 0.050781 0.042969 0.078125 0.10938 0.078125 0.20312z"/>
  </symbol>
  <symbol id="b" overflow="visible">
   <path d="m0.3125-0.78125v0.17188h0.1875v0.14062h-0.1875v0.26562c0 0.023437 0.003906 0.039063 0.015625 0.046875 0.007813 0.011719 0.03125 0.015625 0.0625 0.015625h0.09375v0.14062h-0.15625c-0.085937 0-0.14062-0.015625-0.17188-0.046875s-0.046875-0.082031-0.046875-0.15625v-0.26562h-0.09375v-0.14062h0.09375v-0.17188z"/>
  </symbol>
  <symbol id="k" overflow="visible">
   <path d="m0.5-0.51562v-0.32812h0.20312v0.84375h-0.20312v-0.09375c-0.023438 0.042969-0.046875 0.074219-0.078125 0.09375-0.03125 0.0078125-0.070313 0.015625-0.10938 0.015625-0.085938 0-0.15234-0.023438-0.20312-0.078125-0.042969-0.0625-0.0625-0.14062-0.0625-0.23438s0.019531-0.17188 0.0625-0.23438c0.050781-0.0625 0.11719-0.09375 0.20312-0.09375 0.039062 0 0.078125 0.011719 0.10938 0.03125 0.03125 0.011719 0.054687 0.039062 0.078125 0.078125zm-0.125 0.39062c0.039062 0 0.070312-0.015625 0.09375-0.046875 0.019531-0.03125 0.03125-0.070313 0.03125-0.125 0-0.0625-0.011719-0.10938-0.03125-0.14062-0.023438-0.03125-0.054688-0.046875-0.09375-0.046875-0.042969 0-0.074219 0.015625-0.09375 0.046875-0.023438 0.03125-0.03125 0.078125-0.03125 0.14062 0 0.054687 0.007812 0.09375 0.03125 0.125 0.019531 0.03125 0.050781 0.046875 0.09375 0.046875z"/>
  </symbol>
  <symbol id="j" overflow="visible">
   <path d="m0.42188-0.125c0.039063 0 0.070313-0.015625 0.09375-0.046875 0.019531-0.03125 0.03125-0.070313 0.03125-0.125 0-0.0625-0.011719-0.10938-0.03125-0.14062-0.023437-0.03125-0.054687-0.046875-0.09375-0.046875-0.042969 0-0.078125 0.015625-0.10938 0.046875-0.023438 0.03125-0.03125 0.078125-0.03125 0.14062 0 0.054687 0.007812 0.09375 0.03125 0.125 0.03125 0.03125 0.066406 0.046875 0.10938 0.046875zm-0.14062-0.39062c0.03125-0.039063 0.0625-0.066406 0.09375-0.078125 0.03125-0.019531 0.066406-0.03125 0.10938-0.03125 0.070313 0 0.13281 0.03125 0.1875 0.09375 0.050781 0.0625 0.078125 0.14062 0.078125 0.23438s-0.027344 0.17188-0.078125 0.23438c-0.054687 0.054688-0.11719 0.078125-0.1875 0.078125-0.042969 0-0.078125-0.0078125-0.10938-0.015625-0.03125-0.019531-0.0625-0.050781-0.09375-0.09375v0.09375h-0.1875v-0.84375h0.1875z"/>
  </symbol>
  <symbol id="i" overflow="visible">
   <path d="m0.015625-0.60938h0.1875l0.17188 0.42188 0.14062-0.42188h0.1875l-0.25 0.67188c-0.03125 0.0625-0.0625 0.10156-0.09375 0.125-0.03125 0.03125-0.078125 0.046875-0.14062 0.046875h-0.10938v-0.125h0.0625c0.03125 0 0.050781-0.007813 0.0625-0.015625 0.019531-0.011719 0.035156-0.027344 0.046875-0.046875v-0.03125z"/>
  </symbol>
  <symbol id="h" overflow="visible">
   <path d="m0.10938-0.8125h0.5625v0.15625h-0.35938v0.15625h0.32812v0.15625h-0.32812v0.34375h-0.20312z"/>
  </symbol>
  <symbol id="g" overflow="visible">
   <path d="m0.70312-0.375v0.375h-0.1875v-0.28125c0-0.050781-0.007813-0.085938-0.015625-0.10938v-0.046875c-0.011719-0.007812-0.027344-0.015625-0.046875-0.015625-0.011719-0.007813-0.023437-0.015625-0.03125-0.015625-0.042969 0-0.078125 0.015625-0.10938 0.046875-0.023438 0.03125-0.03125 0.074219-0.03125 0.125v0.29688h-0.1875v-0.84375h0.1875v0.32812c0.03125-0.039063 0.0625-0.066406 0.09375-0.078125 0.03125-0.019531 0.066406-0.03125 0.10938-0.03125 0.070313 0 0.125 0.023438 0.15625 0.0625 0.039063 0.042969 0.0625 0.10547 0.0625 0.1875z"/>
  </symbol>
  <symbol id="f" overflow="visible">
   <path d="m0.65625-0.5c0.019531-0.039062 0.046875-0.070312 0.078125-0.09375 0.039063-0.019531 0.082031-0.03125 0.125-0.03125 0.0625 0 0.10938 0.023438 0.14062 0.0625 0.039062 0.042969 0.0625 0.10547 0.0625 0.1875v0.375h-0.1875v-0.3125-0.015625-0.03125c0-0.039063-0.007812-0.066406-0.015625-0.078125-0.011719-0.019531-0.03125-0.03125-0.0625-0.03125-0.042969 0-0.074219 0.015625-0.09375 0.046875-0.023437 0.023437-0.03125 0.0625-0.03125 0.125v0.29688h-0.1875v-0.3125c0-0.070312-0.007813-0.11328-0.015625-0.125-0.011719-0.019531-0.03125-0.03125-0.0625-0.03125-0.042969 0-0.074219 0.015625-0.09375 0.046875-0.023438 0.023437-0.03125 0.0625-0.03125 0.125v0.29688h-0.1875v-0.60938h0.1875v0.09375c0.03125-0.03125 0.0625-0.054687 0.09375-0.078125 0.03125-0.019531 0.0625-0.03125 0.09375-0.03125 0.039062 0 0.078125 0.011719 0.10938 0.03125 0.03125 0.023438 0.054687 0.054688 0.078125 0.09375z"/>
  </symbol>
  <symbol id="s" overflow="visible">
   <path d="m0.09375-0.60938h0.1875v0.60938h-0.1875zm0-0.23438h0.1875v0.15625h-0.1875z"/>
  </symbol>
  <symbol id="r" overflow="visible">
   <path d="m0.5-0.84375v0.125h-0.10938c-0.03125 0-0.054687 0.007812-0.0625 0.015625-0.011719 0.011719-0.015625 0.027344-0.015625 0.046875v0.046875h0.17188v0.14062h-0.17188v0.46875h-0.1875v-0.46875h-0.10938v-0.14062h0.10938v-0.046875c0-0.0625 0.015625-0.10938 0.046875-0.14062 0.039063-0.03125 0.097656-0.046875 0.17188-0.046875z"/>
  </symbol>
  <symbol id="d" overflow="visible">
   <path d="m0.375-0.48438c-0.042969 0-0.074219 0.015625-0.09375 0.046875-0.023438 0.03125-0.03125 0.078125-0.03125 0.14062 0 0.054687 0.007812 0.09375 0.03125 0.125 0.019531 0.03125 0.050781 0.046875 0.09375 0.046875 0.039062 0 0.070312-0.015625 0.09375-0.046875 0.03125-0.03125 0.046875-0.070313 0.046875-0.125 0-0.0625-0.015625-0.10938-0.046875-0.14062-0.023438-0.03125-0.054688-0.046875-0.09375-0.046875zm0-0.14062c0.10156 0 0.1875 0.03125 0.25 0.09375 0.0625 0.054688 0.09375 0.13281 0.09375 0.23438 0 0.09375-0.03125 0.17188-0.09375 0.23438-0.0625 0.054688-0.14844 0.078125-0.25 0.078125-0.10547 0-0.1875-0.023438-0.25-0.078125-0.054688-0.0625-0.078125-0.14062-0.078125-0.23438 0-0.10156 0.023438-0.17969 0.078125-0.23438 0.0625-0.0625 0.14453-0.09375 0.25-0.09375z"/>
  </symbol>
  <symbol id="q" overflow="visible">
   <path d="m0.10938-0.8125h0.21875l0.29688 0.5625v-0.5625h0.20312v0.8125h-0.23438l-0.29688-0.5625v0.5625h-0.1875z"/>
  </symbol>
  <symbol id="p" overflow="visible">
   <path d="m0.09375-0.23438v-0.375h0.1875v0.0625 0.125 0.09375 0.10938c0 0.023438 0.003906 0.039062 0.015625 0.046875 0.007813 0.011719 0.019531 0.023437 0.03125 0.03125 0.007813 0.011719 0.023437 0.015625 0.046875 0.015625 0.039062 0 0.070312-0.015625 0.09375-0.046875 0.019531-0.03125 0.03125-0.078125 0.03125-0.14062v-0.29688h0.20312v0.60938h-0.20312v-0.09375c-0.03125 0.042969-0.0625 0.074219-0.09375 0.09375-0.03125 0.0078125-0.070312 0.015625-0.10938 0.015625-0.0625 0-0.11719-0.019531-0.15625-0.0625-0.03125-0.039062-0.046875-0.10156-0.046875-0.1875z"/>
  </symbol>
  <symbol id="o" overflow="visible">
   <path d="m0.70312-0.375v0.375h-0.1875v-0.28125c0-0.050781-0.007813-0.085938-0.015625-0.10938v-0.046875c-0.011719-0.007812-0.027344-0.015625-0.046875-0.015625-0.011719-0.007813-0.023437-0.015625-0.03125-0.015625-0.042969 0-0.078125 0.015625-0.10938 0.046875-0.023438 0.03125-0.03125 0.074219-0.03125 0.125v0.29688h-0.1875v-0.60938h0.1875v0.09375c0.03125-0.039063 0.0625-0.066406 0.09375-0.078125 0.03125-0.019531 0.066406-0.03125 0.10938-0.03125 0.070313 0 0.125 0.023438 0.15625 0.0625 0.039063 0.042969 0.0625 0.10547 0.0625 0.1875z"/>
  </symbol>
  <symbol id="n" overflow="visible">
   <path d="m0.10938-0.8125h0.34375c0.10156 0 0.17969 0.027344 0.23438 0.078125 0.050781 0.042969 0.078125 0.10547 0.078125 0.1875 0 0.085937-0.027344 0.15234-0.078125 0.20312-0.054688 0.042969-0.13281 0.0625-0.23438 0.0625h-0.14062v0.28125h-0.20312zm0.20312 0.15625v0.21875h0.10938c0.039063 0 0.070313-0.003906 0.09375-0.015625 0.019531-0.019531 0.03125-0.050781 0.03125-0.09375 0-0.03125-0.011719-0.054687-0.03125-0.078125-0.023437-0.019531-0.054687-0.03125-0.09375-0.03125z"/>
  </symbol>
  <symbol id="m" overflow="visible">
   <path d="m0.09375-0.60938h0.1875v0.59375c0 0.082031-0.023438 0.14453-0.0625 0.1875-0.03125 0.039063-0.085938 0.0625-0.15625 0.0625h-0.09375v-0.125h0.03125c0.03125 0 0.050781-0.011719 0.0625-0.03125 0.019531-0.011719 0.03125-0.042969 0.03125-0.09375zm0-0.23438h0.1875v0.15625h-0.1875z"/>
  </symbol>
  <symbol id="l" overflow="visible">
   <path d="m0.57812-0.59375v0.17188c-0.023437-0.019531-0.046875-0.035156-0.078125-0.046875-0.023438-0.007812-0.046875-0.015625-0.078125-0.015625-0.054687 0-0.09375 0.015625-0.125 0.046875s-0.046875 0.078125-0.046875 0.14062c0 0.054687 0.015625 0.09375 0.046875 0.125s0.070313 0.046875 0.125 0.046875c0.03125 0 0.054687-0.003906 0.078125-0.015625 0.03125-0.007813 0.054688-0.019531 0.078125-0.03125v0.15625c-0.03125 0.011719-0.0625 0.015625-0.09375 0.015625-0.03125 0.0078125-0.0625 0.015625-0.09375 0.015625-0.10547 0-0.1875-0.023438-0.25-0.078125-0.0625-0.0625-0.09375-0.14062-0.09375-0.23438 0-0.10156 0.03125-0.17969 0.09375-0.23438 0.0625-0.0625 0.14453-0.09375 0.25-0.09375 0.03125 0 0.0625 0.007812 0.09375 0.015625 0.03125 0 0.0625 0.007813 0.09375 0.015625z"/>
  </symbol>
 </defs>
 <g>
  <path d="m482.06 38.906v98.289h-98.289v-40.488l-84.215-0.003906v110.62h112.22v-40.453h98.289v98.289h-98.289v-40.453h-112.22v110.59h140.22v-40.453h98.289v98.289h-98.289v-40.453h-140.22v110.93l168.22-0.003906v-40.793h98.289v98.289h-98.289v-40.184l-187 0.003906v-192.07h-48.539v40.453h-98.289v-98.289h98.289v40.453h48.539v-192.07l103 0.003906v-40.488h98.289zm10.621 145.35h-63.527v63.527h63.527zm56 255.93h-63.527v63.527h63.527zm-28-127.97h-63.527v63.527h63.527zm-305.82-63.828h-63.531v63.527h63.531zm249.82-192.11h-63.531v63.527h63.531z"/>
  <use x="70" y="563.308594" xlink:href="#t"/>
  <use x="70.808594" y="563.308594" xlink:href="#c"/>
  <use x="71.351562" y="563.308594" xlink:href="#a"/>
  <use x="72.101562" y="563.308594" xlink:href="#e"/>
  <use x="72.84375" y="563.308594" xlink:href="#b"/>
  <use x="73.371094" y="563.308594" xlink:href="#a"/>
  <use x="74.117188" y="563.308594" xlink:href="#k"/>
  <use x="75.292969" y="563.308594" xlink:href="#j"/>
  <use x="76.082031" y="563.308594" xlink:href="#i"/>
  <use x="77.183594" y="563.308594" xlink:href="#h"/>
  <use x="77.9375" y="563.308594" xlink:href="#e"/>
  <use x="78.679688" y="563.308594" xlink:href="#g"/>
  <use x="79.464844" y="563.308594" xlink:href="#f"/>
  <use x="80.613281" y="563.308594" xlink:href="#s"/>
  <use x="70" y="564.410156" xlink:href="#r"/>
  <use x="70.480469" y="564.410156" xlink:href="#c"/>
  <use x="71.023438" y="564.410156" xlink:href="#d"/>
  <use x="71.78125" y="564.410156" xlink:href="#f"/>
  <use x="73.3125" y="564.410156" xlink:href="#b"/>
  <use x="73.839844" y="564.410156" xlink:href="#g"/>
  <use x="74.625" y="564.410156" xlink:href="#a"/>
  <use x="75.757812" y="564.410156" xlink:href="#q"/>
  <use x="76.679688" y="564.410156" xlink:href="#d"/>
  <use x="77.4375" y="564.410156" xlink:href="#p"/>
  <use x="78.222656" y="564.410156" xlink:href="#o"/>
  <use x="79.390625" y="564.410156" xlink:href="#n"/>
  <use x="80.199219" y="564.410156" xlink:href="#c"/>
  <use x="80.742188" y="564.410156" xlink:href="#d"/>
  <use x="81.5" y="564.410156" xlink:href="#m"/>
  <use x="81.875" y="564.410156" xlink:href="#a"/>
  <use x="82.625" y="564.410156" xlink:href="#l"/>
  <use x="83.277344" y="564.410156" xlink:href="#b"/>
 </g>
</svg>